<svg width="1065" height="177" viewBox="0 0 1065 177" fill="none" xmlns="http://www.w3.org/2000/svg">
<g filter="url(#filter0_d_18_2)">
<rect x="285.092" y="23.4181" width="9" height="130" rx="4.5" transform="rotate(8 285.092 23.4181)" fill="url(#paint0_linear_18_2)" shape-rendering="crispEdges"/>
</g>
<path d="M21.6364 102.736L21.5455 86.1454H23.9091L51.7273 56.5999H68L36.2727 90.2363H34.1364L21.6364 102.736ZM9.13636 126.418V33.3272H22.7273V126.418H9.13636ZM53.2273 126.418L28.2273 93.2363L37.5909 83.7363L69.9091 126.418H53.2273ZM77.8264 126.418V56.5999H91.4173V126.418H77.8264ZM84.69 45.8272C82.3264 45.8272 80.2961 45.0393 78.5991 43.4635C76.9324 41.8575 76.0991 39.9484 76.0991 37.7363C76.0991 35.4938 76.9324 33.5848 78.5991 32.009C80.2961 30.4029 82.3264 29.5999 84.69 29.5999C87.0536 29.5999 89.0688 30.4029 90.7355 32.009C92.4324 33.5848 93.2809 35.4938 93.2809 37.7363C93.2809 39.9484 92.4324 41.8575 90.7355 43.4635C89.0688 45.0393 87.0536 45.8272 84.69 45.8272ZM139.732 56.5999V67.509H101.596V56.5999H139.732ZM111.823 39.8726H125.414V105.918C125.414 108.554 125.808 110.539 126.596 111.873C127.384 113.176 128.399 114.07 129.641 114.554C130.914 115.009 132.293 115.236 133.778 115.236C134.869 115.236 135.823 115.161 136.641 115.009C137.46 114.857 138.096 114.736 138.55 114.645L141.005 125.873C140.217 126.176 139.096 126.479 137.641 126.782C136.187 127.115 134.369 127.297 132.187 127.327C128.611 127.388 125.278 126.751 122.187 125.418C119.096 124.085 116.596 122.024 114.687 119.236C112.778 116.448 111.823 112.948 111.823 108.736V39.8726ZM167.297 84.9635V126.418H153.706V33.3272H167.115V67.9635H167.979C169.615 64.206 172.115 61.2211 175.479 59.009C178.843 56.7969 183.237 55.6908 188.661 55.6908C193.449 55.6908 197.631 56.6757 201.206 58.6454C204.812 60.6151 207.6 63.5545 209.57 67.4635C211.57 71.3423 212.57 76.1908 212.57 82.009V126.418H198.979V83.6454C198.979 78.5241 197.661 74.5545 195.025 71.7363C192.388 68.8878 188.722 67.4635 184.025 67.4635C180.812 67.4635 177.934 68.1454 175.388 69.509C172.873 70.8726 170.888 72.8726 169.434 75.509C168.009 78.1151 167.297 81.2666 167.297 84.9635Z" fill="#E8E6E3"/>
<path d="M372.182 128.009C367.97 128.009 364.121 127.191 360.636 125.554C357.152 123.888 354.379 121.494 352.318 118.373C350.258 115.221 349.227 111.403 349.227 106.918C349.227 103.464 349.879 100.554 351.182 98.1908C352.485 95.8272 354.333 93.8878 356.727 92.3726C359.121 90.8575 361.955 89.6605 365.227 88.7817C368.5 87.9029 372.106 87.2211 376.045 86.7363C379.955 86.2514 383.258 85.8272 385.955 85.4635C388.682 85.0999 390.758 84.5242 392.182 83.7363C393.606 82.9484 394.318 81.6757 394.318 79.9181V78.2817C394.318 73.5242 392.894 69.7817 390.045 67.0545C387.227 64.2969 383.167 62.9181 377.864 62.9181C372.833 62.9181 368.727 64.0242 365.545 66.2363C362.394 68.4484 360.182 71.0545 358.909 74.0545L351.227 71.2817C352.803 67.4635 354.985 64.4181 357.773 62.1454C360.561 59.8423 363.682 58.1908 367.136 57.1908C370.591 56.1605 374.091 55.6454 377.636 55.6454C380.303 55.6454 383.076 55.9938 385.955 56.6908C388.864 57.3878 391.561 58.5999 394.045 60.3272C396.53 62.0241 398.545 64.4029 400.091 67.4635C401.636 70.4938 402.409 74.3423 402.409 79.009V126.418H394.318V115.373H393.818C392.848 117.433 391.409 119.433 389.5 121.373C387.591 123.312 385.197 124.903 382.318 126.145C379.439 127.388 376.061 128.009 372.182 128.009ZM373.273 120.6C377.576 120.6 381.303 119.645 384.455 117.736C387.606 115.827 390.03 113.297 391.727 110.145C393.455 106.964 394.318 103.464 394.318 99.6454V89.5545C393.712 90.1302 392.697 90.6454 391.273 91.0999C389.879 91.5545 388.258 91.9635 386.409 92.3272C384.591 92.6605 382.773 92.9484 380.955 93.1908C379.136 93.4332 377.5 93.6454 376.045 93.8272C372.106 94.312 368.742 95.0696 365.955 96.0999C363.167 97.1302 361.03 98.5545 359.545 100.373C358.061 102.161 357.318 104.464 357.318 107.282C357.318 111.524 358.833 114.812 361.864 117.145C364.894 119.448 368.697 120.6 373.273 120.6ZM426.583 126.418V56.5999H434.719V126.418H426.583ZM430.719 44.5999C429.052 44.5999 427.628 44.0393 426.446 42.9181C425.265 41.7666 424.674 40.3878 424.674 38.7817C424.674 37.1757 425.265 35.812 426.446 34.6908C427.628 33.5393 429.052 32.9635 430.719 32.9635C432.386 32.9635 433.81 33.5393 434.992 34.6908C436.174 35.812 436.765 37.1757 436.765 38.7817C436.765 40.3878 436.174 41.7666 434.992 42.9181C433.81 44.0393 432.386 44.5999 430.719 44.5999ZM505.328 33.3272V126.418H497.237V33.3272H505.328ZM548.797 128.009C544.585 128.009 540.736 127.191 537.251 125.554C533.767 123.888 530.994 121.494 528.933 118.373C526.873 115.221 525.842 111.403 525.842 106.918C525.842 103.464 526.494 100.554 527.797 98.1908C529.1 95.8272 530.948 93.8878 533.342 92.3726C535.736 90.8575 538.57 89.6605 541.842 88.7817C545.115 87.9029 548.721 87.2211 552.66 86.7363C556.57 86.2514 559.873 85.8272 562.57 85.4635C565.297 85.0999 567.373 84.5242 568.797 83.7363C570.221 82.9484 570.933 81.6757 570.933 79.9181V78.2817C570.933 73.5242 569.509 69.7817 566.66 67.0545C563.842 64.2969 559.782 62.9181 554.479 62.9181C549.448 62.9181 545.342 64.0242 542.16 66.2363C539.009 68.4484 536.797 71.0545 535.524 74.0545L527.842 71.2817C529.418 67.4635 531.6 64.4181 534.388 62.1454C537.176 59.8423 540.297 58.1908 543.751 57.1908C547.206 56.1605 550.706 55.6454 554.251 55.6454C556.918 55.6454 559.691 55.9938 562.57 56.6908C565.479 57.3878 568.176 58.5999 570.66 60.3272C573.145 62.0241 575.16 64.4029 576.706 67.4635C578.251 70.4938 579.024 74.3423 579.024 79.009V126.418H570.933V115.373H570.433C569.463 117.433 568.024 119.433 566.115 121.373C564.206 123.312 561.812 124.903 558.933 126.145C556.054 127.388 552.676 128.009 548.797 128.009ZM549.888 120.6C554.191 120.6 557.918 119.645 561.07 117.736C564.221 115.827 566.645 113.297 568.342 110.145C570.07 106.964 570.933 103.464 570.933 99.6454V89.5545C570.327 90.1302 569.312 90.6454 567.888 91.0999C566.494 91.5545 564.873 91.9635 563.024 92.3272C561.206 92.6605 559.388 92.9484 557.57 93.1908C555.751 93.4332 554.115 93.6454 552.66 93.8272C548.721 94.312 545.357 95.0696 542.57 96.0999C539.782 97.1302 537.645 98.5545 536.16 100.373C534.676 102.161 533.933 104.464 533.933 107.282C533.933 111.524 535.448 114.812 538.479 117.145C541.509 119.448 545.312 120.6 549.888 120.6ZM604.789 126.418V33.3272H612.925V69.9181H613.652C614.561 67.8272 615.864 65.6757 617.561 63.4635C619.289 61.2514 621.546 59.4029 624.334 57.9181C627.152 56.4029 630.698 55.6454 634.97 55.6454C640.698 55.6454 645.728 57.1605 650.061 60.1908C654.395 63.1908 657.773 67.4029 660.198 72.8272C662.622 78.2211 663.834 84.509 663.834 91.6908C663.834 98.9029 662.622 105.221 660.198 110.645C657.804 116.07 654.44 120.297 650.107 123.327C645.804 126.357 640.804 127.873 635.107 127.873C630.864 127.873 627.319 127.115 624.47 125.6C621.652 124.085 619.38 122.221 617.652 120.009C615.925 117.767 614.592 115.585 613.652 113.464H612.652V126.418H604.789ZM612.789 91.5545C612.789 97.1908 613.622 102.191 615.289 106.554C616.986 110.888 619.41 114.297 622.561 116.782C625.743 119.236 629.592 120.464 634.107 120.464C638.743 120.464 642.667 119.191 645.88 116.645C649.092 114.07 651.531 110.6 653.198 106.236C654.864 101.873 655.698 96.9787 655.698 91.5545C655.698 86.1908 654.864 81.3575 653.198 77.0545C651.561 72.7514 649.137 69.3423 645.925 66.8272C642.713 64.2817 638.773 63.009 634.107 63.009C629.561 63.009 625.698 64.2363 622.516 66.6908C619.364 69.1151 616.955 72.4787 615.289 76.7817C613.622 81.0545 612.789 85.9787 612.789 91.5545Z" fill="#E8E6E3" fill-opacity="0.4"/>
<defs>
<filter id="filter0_d_18_2" x="243.582" y="0" width="73.8411" height="176.824" filterUnits="userSpaceOnUse" color-interpolation-filters="sRGB">
<feFlood flood-opacity="0" result="BackgroundImageFix"/>
<feColorMatrix in="SourceAlpha" type="matrix" values="0 0 0 0 0 0 0 0 0 0 0 0 0 0 0 0 0 0 127 0" result="hardAlpha"/>
<feOffset/>
<feGaussianBlur stdDeviation="12"/>
<feComposite in2="hardAlpha" operator="out"/>
<feColorMatrix type="matrix" values="0 0 0 0 0.831373 0 0 0 0 0.647059 0 0 0 0 0.454902 0 0 0 0.5 0"/>
<feBlend mode="normal" in2="BackgroundImageFix" result="effect1_dropShadow_18_2"/>
<feBlend mode="normal" in="SourceGraphic" in2="effect1_dropShadow_18_2" result="shape"/>
</filter>
<linearGradient id="paint0_linear_18_2" x1="289.592" y1="23.4181" x2="289.592" y2="153.418" gradientUnits="userSpaceOnUse">
<stop stop-color="#D4A574" stop-opacity="0.1"/>
<stop offset="0.25" stop-color="#D4A574"/>
<stop offset="0.75" stop-color="#D4A574"/>
<stop offset="1" stop-color="#D4A574" stop-opacity="0.1"/>
</linearGradient>
</defs>
</svg>
