<svg width="1065" height="177" viewBox="0 0 1065 177" fill="none" xmlns="http://www.w3.org/2000/svg">
<g filter="url(#filter0_d_30_16)">
<rect x="285.092" y="23.418" width="9" height="130" rx="4.5" transform="rotate(8 285.092 23.418)" fill="url(#paint0_linear_30_16)" shape-rendering="crispEdges"/>
</g>
<path d="M21.6364 102.736L21.5455 86.1452H23.9091L51.7273 56.5998H68L36.2727 90.2361H34.1364L21.6364 102.736ZM9.13636 126.418V33.3271H22.7273V126.418H9.13636ZM53.2273 126.418L28.2273 93.2361L37.5909 83.7361L69.9091 126.418H53.2273ZM77.8264 126.418V56.5998H91.4173V126.418H77.8264ZM84.69 45.8271C82.3264 45.8271 80.2961 45.0392 78.5991 43.4634C76.9324 41.8574 76.0991 39.9483 76.0991 37.7361C76.0991 35.4937 76.9324 33.5846 78.5991 32.0089C80.2961 30.4028 82.3264 29.5998 84.69 29.5998C87.0536 29.5998 89.0688 30.4028 90.7355 32.0089C92.4324 33.5846 93.2809 35.4937 93.2809 37.7361C93.2809 39.9483 92.4324 41.8574 90.7355 43.4634C89.0688 45.0392 87.0536 45.8271 84.69 45.8271ZM139.732 56.5998V67.5089H101.596V56.5998H139.732ZM111.823 39.8725H125.414V105.918C125.414 108.554 125.808 110.539 126.596 111.873C127.384 113.176 128.399 114.069 129.641 114.554C130.914 115.009 132.293 115.236 133.778 115.236C134.869 115.236 135.823 115.16 136.641 115.009C137.46 114.857 138.096 114.736 138.55 114.645L141.005 125.873C140.217 126.176 139.096 126.479 137.641 126.782C136.187 127.115 134.369 127.297 132.187 127.327C128.611 127.388 125.278 126.751 122.187 125.418C119.096 124.085 116.596 122.024 114.687 119.236C112.778 116.448 111.823 112.948 111.823 108.736V39.8725ZM167.297 84.9634V126.418H153.706V33.3271H167.115V67.9634H167.979C169.615 64.2058 172.115 61.221 175.479 59.0089C178.843 56.7968 183.237 55.6907 188.661 55.6907C193.449 55.6907 197.631 56.6755 201.206 58.6452C204.812 60.6149 207.6 63.5543 209.57 67.4634C211.57 71.3422 212.57 76.1907 212.57 82.0089V126.418H198.979V83.6452C198.979 78.524 197.661 74.5543 195.025 71.7361C192.388 68.8877 188.722 67.4634 184.025 67.4634C180.812 67.4634 177.934 68.1452 175.388 69.5089C172.873 70.8725 170.888 72.8725 169.434 75.5089C168.009 78.1149 167.297 81.2665 167.297 84.9634Z" fill="#1A1A1A"/>
<path d="M372.182 128.009C367.97 128.009 364.121 127.191 360.636 125.554C357.152 123.888 354.379 121.494 352.318 118.373C350.258 115.221 349.227 111.403 349.227 106.918C349.227 103.463 349.879 100.554 351.182 98.1907C352.485 95.8271 354.333 93.8877 356.727 92.3725C359.121 90.8574 361.955 89.6604 365.227 88.7816C368.5 87.9028 372.106 87.221 376.045 86.7361C379.955 86.2513 383.258 85.8271 385.955 85.4634C388.682 85.0998 390.758 84.524 392.182 83.7361C393.606 82.9483 394.318 81.6755 394.318 79.918V78.2816C394.318 73.524 392.894 69.7816 390.045 67.0543C387.227 64.2968 383.167 62.918 377.864 62.918C372.833 62.918 368.727 64.024 365.545 66.2361C362.394 68.4483 360.182 71.0543 358.909 74.0543L351.227 71.2816C352.803 67.4634 354.985 64.418 357.773 62.1452C360.561 59.8422 363.682 58.1907 367.136 57.1907C370.591 56.1604 374.091 55.6452 377.636 55.6452C380.303 55.6452 383.076 55.9937 385.955 56.6907C388.864 57.3877 391.561 58.5998 394.045 60.3271C396.53 62.024 398.545 64.4028 400.091 67.4634C401.636 70.4937 402.409 74.3422 402.409 79.0089V126.418H394.318V115.373H393.818C392.848 117.433 391.409 119.433 389.5 121.373C387.591 123.312 385.197 124.903 382.318 126.145C379.439 127.388 376.061 128.009 372.182 128.009ZM373.273 120.6C377.576 120.6 381.303 119.645 384.455 117.736C387.606 115.827 390.03 113.297 391.727 110.145C393.455 106.963 394.318 103.463 394.318 99.6452V89.5543C393.712 90.1301 392.697 90.6452 391.273 91.0998C389.879 91.5543 388.258 91.9634 386.409 92.3271C384.591 92.6604 382.773 92.9483 380.955 93.1907C379.136 93.4331 377.5 93.6452 376.045 93.8271C372.106 94.3119 368.742 95.0695 365.955 96.0998C363.167 97.1301 361.03 98.5543 359.545 100.373C358.061 102.16 357.318 104.463 357.318 107.282C357.318 111.524 358.833 114.812 361.864 117.145C364.894 119.448 368.697 120.6 373.273 120.6ZM426.583 126.418V56.5998H434.719V126.418H426.583ZM430.719 44.5998C429.052 44.5998 427.628 44.0392 426.446 42.918C425.265 41.7665 424.674 40.3877 424.674 38.7816C424.674 37.1755 425.265 35.8119 426.446 34.6907C427.628 33.5392 429.052 32.9634 430.719 32.9634C432.386 32.9634 433.81 33.5392 434.992 34.6907C436.174 35.8119 436.765 37.1755 436.765 38.7816C436.765 40.3877 436.174 41.7665 434.992 42.918C433.81 44.0392 432.386 44.5998 430.719 44.5998ZM505.328 33.3271V126.418H497.237V33.3271H505.328ZM548.797 128.009C544.585 128.009 540.736 127.191 537.251 125.554C533.767 123.888 530.994 121.494 528.933 118.373C526.873 115.221 525.842 111.403 525.842 106.918C525.842 103.463 526.494 100.554 527.797 98.1907C529.1 95.8271 530.948 93.8877 533.342 92.3725C535.736 90.8574 538.57 89.6604 541.842 88.7816C545.115 87.9028 548.721 87.221 552.66 86.7361C556.57 86.2513 559.873 85.8271 562.57 85.4634C565.297 85.0998 567.373 84.524 568.797 83.7361C570.221 82.9483 570.933 81.6755 570.933 79.918V78.2816C570.933 73.524 569.509 69.7816 566.66 67.0543C563.842 64.2968 559.782 62.918 554.479 62.918C549.448 62.918 545.342 64.024 542.16 66.2361C539.009 68.4483 536.797 71.0543 535.524 74.0543L527.842 71.2816C529.418 67.4634 531.6 64.418 534.388 62.1452C537.176 59.8422 540.297 58.1907 543.751 57.1907C547.206 56.1604 550.706 55.6452 554.251 55.6452C556.918 55.6452 559.691 55.9937 562.57 56.6907C565.479 57.3877 568.176 58.5998 570.66 60.3271C573.145 62.024 575.16 64.4028 576.706 67.4634C578.251 70.4937 579.024 74.3422 579.024 79.0089V126.418H570.933V115.373H570.433C569.463 117.433 568.024 119.433 566.115 121.373C564.206 123.312 561.812 124.903 558.933 126.145C556.054 127.388 552.676 128.009 548.797 128.009ZM549.888 120.6C554.191 120.6 557.918 119.645 561.07 117.736C564.221 115.827 566.645 113.297 568.342 110.145C570.07 106.963 570.933 103.463 570.933 99.6452V89.5543C570.327 90.1301 569.312 90.6452 567.888 91.0998C566.494 91.5543 564.873 91.9634 563.024 92.3271C561.206 92.6604 559.388 92.9483 557.57 93.1907C555.751 93.4331 554.115 93.6452 552.66 93.8271C548.721 94.3119 545.357 95.0695 542.57 96.0998C539.782 97.1301 537.645 98.5543 536.16 100.373C534.676 102.16 533.933 104.463 533.933 107.282C533.933 111.524 535.448 114.812 538.479 117.145C541.509 119.448 545.312 120.6 549.888 120.6ZM604.789 126.418V33.3271H612.925V69.918H613.652C614.561 67.8271 615.864 65.6755 617.561 63.4634C619.289 61.2513 621.546 59.4028 624.334 57.918C627.152 56.4028 630.698 55.6452 634.97 55.6452C640.698 55.6452 645.728 57.1604 650.061 60.1907C654.395 63.1907 657.773 67.4028 660.198 72.8271C662.622 78.221 663.834 84.5089 663.834 91.6907C663.834 98.9028 662.622 105.221 660.198 110.645C657.804 116.069 654.44 120.297 650.107 123.327C645.804 126.357 640.804 127.873 635.107 127.873C630.864 127.873 627.319 127.115 624.47 125.6C621.652 124.085 619.38 122.221 617.652 120.009C615.925 117.766 614.592 115.585 613.652 113.463H612.652V126.418H604.789ZM612.789 91.5543C612.789 97.1907 613.622 102.191 615.289 106.554C616.986 110.888 619.41 114.297 622.561 116.782C625.743 119.236 629.592 120.463 634.107 120.463C638.743 120.463 642.667 119.191 645.88 116.645C649.092 114.069 651.531 110.6 653.198 106.236C654.864 101.873 655.698 96.9786 655.698 91.5543C655.698 86.1907 654.864 81.3574 653.198 77.0543C651.561 72.7513 649.137 69.3422 645.925 66.8271C642.713 64.2816 638.773 63.0089 634.107 63.0089C629.561 63.0089 625.698 64.2361 622.516 66.6907C619.364 69.1149 616.955 72.4786 615.289 76.7816C613.622 81.0543 612.789 85.9786 612.789 91.5543Z" fill="#1A1A1A" fill-opacity="0.4"/>
<defs>
<filter id="filter0_d_30_16" x="243.582" y="0" width="73.8411" height="176.823" filterUnits="userSpaceOnUse" color-interpolation-filters="sRGB">
<feFlood flood-opacity="0" result="BackgroundImageFix"/>
<feColorMatrix in="SourceAlpha" type="matrix" values="0 0 0 0 0 0 0 0 0 0 0 0 0 0 0 0 0 0 127 0" result="hardAlpha"/>
<feOffset/>
<feGaussianBlur stdDeviation="12"/>
<feComposite in2="hardAlpha" operator="out"/>
<feColorMatrix type="matrix" values="0 0 0 0 0.831373 0 0 0 0 0.647059 0 0 0 0 0.454902 0 0 0 0.5 0"/>
<feBlend mode="normal" in2="BackgroundImageFix" result="effect1_dropShadow_30_16"/>
<feBlend mode="normal" in="SourceGraphic" in2="effect1_dropShadow_30_16" result="shape"/>
</filter>
<linearGradient id="paint0_linear_30_16" x1="289.592" y1="23.418" x2="289.592" y2="153.418" gradientUnits="userSpaceOnUse">
<stop stop-color="#D4A574" stop-opacity="0.1"/>
<stop offset="0.25" stop-color="#D4A574"/>
<stop offset="0.75" stop-color="#D4A574"/>
<stop offset="1" stop-color="#D4A574" stop-opacity="0.1"/>
</linearGradient>
</defs>
</svg>
